<svg xmlns="http://www.w3.org/2000/svg" width="22.465" height="22.464" viewBox="0 0 22.465 22.464">
  <path id="activity" d="M15.6,23.465a1.079,1.079,0,0,1-1.048-.788L8.863,5.65,6.5,12.589a1.126,1.126,0,0,1-1.048.75H2.123a1.125,1.125,0,0,1,0-2.25H4.669L7.814,1.75A1.126,1.126,0,0,1,8.863,1a1.079,1.079,0,0,1,1.048.788L15.6,18.814l2.359-6.938a1.127,1.127,0,0,1,1.048-.75h3.332a1.125,1.125,0,0,1,0,2.25H19.8l-3.183,9.338A1.045,1.045,0,0,1,15.6,23.465Z" transform="translate(-1 -1)" fill="#ff5722"/>
</svg>
