<svg id="shopping-bag" xmlns="http://www.w3.org/2000/svg" width="22.65" height="22.651" viewBox="0 0 22.65 22.651">
  <path id="Path_800" data-name="Path 800" d="M22.518,23.524H2.133A1.113,1.113,0,0,1,1,22.389V6.432A1.113,1.113,0,0,1,2.133,5.3,1.113,1.113,0,0,1,3.265,6.432V21.255H21.386V6.432a1.133,1.133,0,1,1,2.265,0V22.389A1.113,1.113,0,0,1,22.518,23.524Z" transform="translate(-1 -0.873)" fill="#1ebc00"/>
  <path id="Path_801" data-name="Path 801" d="M20.965,7.693H3.6a1.128,1.128,0,0,1-.868-.416A1.07,1.07,0,0,1,2.5,6.332L3.3,1.945A1.136,1.136,0,0,1,4.429,1H20.285a1.172,1.172,0,0,1,1.133.945L22.1,6.37a1.1,1.1,0,0,1-.264.908A1.128,1.128,0,0,1,20.965,7.693ZM4.958,5.424H19.643L19.3,3.269H5.373Z" transform="translate(-0.956 -1)" fill="#1ebc00"/>
  <path id="Path_802" data-name="Path 802" d="M12.135,14.867a4.709,4.709,0,0,1-4.681-4.689V10.1a1.134,1.134,0,0,1,2.265.076v.038a2.416,2.416,0,0,0,4.832,0v-.038a1.113,1.113,0,0,1,1.133-1.134A1.15,1.15,0,0,1,16.816,10.1v.076A4.709,4.709,0,0,1,12.135,14.867Z" transform="translate(-0.809 -0.762)" fill="#1ebc00"/>
</svg>
