<svg width="14" height="14" viewBox="0 0 14 14" fill="none" xmlns="http://www.w3.org/2000/svg">
<g clip-path="url(#clip0_159_18)">
<path d="M11.0833 0H2.91667C2.1434 0.00092625 1.40208 0.308514 0.855295 0.855295C0.308514 1.40208 0.00092625 2.1434 0 2.91667L0 11.0833C0.00092625 11.8566 0.308514 12.5979 0.855295 13.1447C1.40208 13.6915 2.1434 13.9991 2.91667 14H11.0833C11.8566 13.9991 12.5979 13.6915 13.1447 13.1447C13.6915 12.5979 13.9991 11.8566 14 11.0833V2.91667C13.9991 2.1434 13.6915 1.40208 13.1447 0.855295C12.5979 0.308514 11.8566 0.00092625 11.0833 0V0ZM12.8333 11.0833C12.8333 11.5475 12.649 11.9926 12.3208 12.3208C11.9926 12.649 11.5475 12.8333 11.0833 12.8333H2.91667C2.45254 12.8333 2.00742 12.649 1.67923 12.3208C1.35104 11.9926 1.16667 11.5475 1.16667 11.0833V2.91667C1.16667 2.45254 1.35104 2.00742 1.67923 1.67923C2.00742 1.35104 2.45254 1.16667 2.91667 1.16667H11.0833C11.5475 1.16667 11.9926 1.35104 12.3208 1.67923C12.649 2.00742 12.8333 2.45254 12.8333 2.91667V11.0833Z" fill="#02AE1E"/>
<path d="M5.44382 9.28654L3.15773 7.00045C3.04834 6.8911 2.9 6.82966 2.74532 6.82966C2.59064 6.82966 2.44229 6.8911 2.3329 7.00045C2.22354 7.10985 2.16211 7.25819 2.16211 7.41287C2.16211 7.56755 2.22354 7.7159 2.3329 7.82529L4.61898 10.1114C4.72733 10.2198 4.85596 10.3057 4.99754 10.3644C5.13911 10.4231 5.29086 10.4532 5.44411 10.4532C5.59736 10.4532 5.74911 10.4231 5.89068 10.3644C6.03226 10.3057 6.16089 10.2198 6.26923 10.1114L11.6662 4.71437C11.7756 4.60498 11.837 4.45664 11.837 4.30196C11.837 4.14728 11.7756 3.99893 11.6662 3.88954V3.88954C11.5568 3.78018 11.4085 3.71875 11.2538 3.71875C11.0991 3.71875 10.9508 3.78018 10.8414 3.88954L5.44382 9.28654Z" fill="#02AE1E"/>
</g>
<defs>
<clipPath id="clip0_159_18">
<rect width="14" height="14" fill="white"/>
</clipPath>
</defs>
</svg>
