<svg width="8" height="11" viewBox="0 0 8 11" fill="none" xmlns="http://www.w3.org/2000/svg">
<path d="M7.40228 0.836067H5.18029V0.610306C5.18029 0.273812 4.91489 0 4.58867 0H3.41153C3.08524 0 2.81981 0.273812 2.81981 0.610341V0.836102H0.597856C0.268204 0.836102 0 1.10709 0 1.44012V1.83923C0 2.08954 0.151477 2.30472 0.36663 2.39625C0.434795 3.7799 0.829287 10.4696 0.84704 10.7702C0.854648 10.8993 0.959585 11 1.08649 11H6.91367C7.04058 11 7.14555 10.8993 7.15313 10.7702C7.17088 10.4697 7.56534 3.7799 7.63354 2.39625C7.84869 2.30472 8.00017 2.08954 8.00017 1.83923V1.44009C8.00017 1.10705 7.73196 0.836067 7.40228 0.836067ZM3.2996 0.610341C3.2996 0.543363 3.34981 0.488887 3.41153 0.488887H4.58867C4.65036 0.488887 4.70053 0.543363 4.70053 0.610341V0.836102H3.29964V0.610341H3.2996ZM0.479724 1.44009C0.479724 1.3766 0.532707 1.32495 0.597787 1.32495H7.40224C7.46732 1.32495 7.5203 1.37657 7.5203 1.44009V1.83919C7.5203 1.90271 7.46732 1.9544 7.40224 1.9544H0.597822C0.532741 1.9544 0.479758 1.90275 0.479758 1.83919V1.44009H0.479724ZM6.68766 10.5111H1.31234C1.24191 9.31516 0.91894 3.81772 0.849336 2.44328H7.15062C7.08102 3.81772 6.75809 9.31516 6.68766 10.5111Z" fill="#E70202"/>
<path d="M3.99966 3.32178C3.86717 3.32178 3.75977 3.43122 3.75977 3.56622V9.71604C3.75977 9.85104 3.86717 9.96048 3.99966 9.96048C4.13215 9.96048 4.23956 9.85104 4.23956 9.71604V3.56622C4.23956 3.43122 4.13215 3.32178 3.99966 3.32178Z" fill="#E70202"/>
<path d="M2.37886 3.56375C2.37193 3.42896 2.25867 3.325 2.12679 3.3324C1.99451 3.33942 1.89282 3.45442 1.89975 3.58924L2.21442 9.72928C2.22111 9.85975 2.327 9.96098 2.45377 9.96098C2.45799 9.96098 2.46224 9.96088 2.46649 9.96063C2.59877 9.95361 2.70045 9.83862 2.69353 9.70379L2.37886 3.56375Z" fill="#E70202"/>
<path d="M5.87378 3.33244C5.74016 3.32465 5.62864 3.42896 5.62172 3.56379L5.30697 9.70383C5.30005 9.83866 5.40173 9.95365 5.53402 9.96067C5.5383 9.96091 5.54252 9.96102 5.54673 9.96102C5.67347 9.96102 5.7794 9.85982 5.78608 9.72932L6.10083 3.58928C6.10775 3.45445 6.0061 3.33946 5.87378 3.33244Z" fill="#E70202"/>
</svg>
