<svg width="13" height="13" viewBox="0 0 13 13" fill="none" xmlns="http://www.w3.org/2000/svg">
<path d="M5.66448 1.76883V1.59833C5.7658 1.40991 5.91823 1.25392 6.10426 1.14827C6.29028 1.04263 6.50234 0.991623 6.71606 1.00112C6.92978 1.01062 7.13648 1.08024 7.3124 1.20197C7.48832 1.3237 7.62631 1.4926 7.71052 1.68926V1.76883C7.80645 2.03765 8 2.26054 8.25271 2.39321C8.50542 2.52589 8.7988 2.55863 9.07455 2.48495H9.18822H9.30189C9.57249 2.38484 9.87104 2.39138 10.137 2.50325C10.403 2.61513 10.6164 2.82395 10.7341 3.08739C10.7983 3.23237 10.8315 3.38918 10.8315 3.54775C10.8315 3.70632 10.7983 3.86313 10.7341 4.00811V4.12178C10.6663 4.24553 10.6237 4.38149 10.6087 4.5218C10.5937 4.66211 10.6067 4.804 10.6469 4.93928C10.687 5.07455 10.7536 5.20053 10.8427 5.30994C10.9318 5.41936 11.0417 5.51003 11.1661 5.57674L11.2911 5.63358H11.4048C11.6661 5.7533 11.8725 5.96763 11.9821 6.23338C12.0918 6.49914 12.0967 6.79658 11.9958 7.06581C11.9401 7.21674 11.8491 7.3522 11.7305 7.46093C11.6119 7.56966 11.469 7.64853 11.3138 7.69098H11.0865C10.8278 7.81058 10.6234 8.02301 10.5139 8.28618C10.4045 8.54934 10.3978 8.84404 10.4954 9.11185V9.19142V9.31645C10.5529 9.44751 10.5836 9.5888 10.5855 9.73192C10.5873 9.87504 10.5604 10.0171 10.5064 10.1496C10.4523 10.2821 10.3721 10.4025 10.2707 10.5034C10.1692 10.6044 10.0485 10.6839 9.9157 10.7373C9.77072 10.8015 9.61391 10.8347 9.45534 10.8347C9.29677 10.8347 9.13996 10.8015 8.99498 10.7373H8.86994C8.6117 10.6128 8.31592 10.5904 8.04189 10.6747C7.76786 10.759 7.53581 10.9438 7.39225 11.192V11.2829V11.3966C7.29192 11.5854 7.14037 11.7421 6.95499 11.8487C6.76961 11.9553 6.55792 12.0075 6.34425 11.9991C6.13057 11.9908 5.92357 11.9224 5.74703 11.8018C5.57049 11.6811 5.43156 11.5131 5.3462 11.317V11.1011C5.25471 10.828 5.063 10.5999 4.80982 10.4628C4.55663 10.3256 4.26084 10.2897 3.98218 10.3622L3.80031 10.4304L3.68664 10.4872C3.48072 10.5529 3.26035 10.5585 3.05136 10.5034C2.84237 10.4483 2.65342 10.3348 2.50667 10.1761C2.35992 10.0174 2.26145 9.82018 2.22281 9.60752C2.18417 9.39487 2.20696 9.17561 2.28851 8.97544L2.34534 8.86177C2.45258 8.61383 2.468 8.3358 2.38885 8.07751C2.3097 7.81923 2.14114 7.59757 1.9134 7.45228L1.8452 7.33861H1.66333C1.40195 7.21889 1.19564 7.00456 1.08596 6.73881C0.976286 6.47305 0.971387 6.17561 1.07225 5.90638C1.13698 5.75903 1.23226 5.62709 1.35179 5.51932C1.47133 5.41154 1.61238 5.33038 1.76563 5.2812H1.8452C2.1191 5.20138 2.35296 5.02147 2.50037 4.7772C2.64777 4.53294 2.69793 4.24218 2.64088 3.96264C2.62438 3.89096 2.59758 3.82204 2.56131 3.75804V3.633C2.50243 3.50473 2.46955 3.36606 2.46456 3.22501C2.45958 3.08396 2.48258 2.94332 2.53226 2.81121C2.58193 2.6791 2.65729 2.55814 2.75397 2.45531C2.85065 2.35249 2.96675 2.26984 3.09556 2.21214C3.24365 2.14459 3.40452 2.10964 3.56729 2.10964C3.73005 2.10964 3.89092 2.14459 4.03901 2.21214L4.15268 2.26897C4.27711 2.33635 4.41369 2.37833 4.55448 2.39249C4.69527 2.40665 4.83747 2.39271 4.97283 2.35147C5.10819 2.31022 5.23401 2.24251 5.34298 2.15225C5.45196 2.06198 5.54192 1.95098 5.60764 1.82567C5.62791 1.80809 5.6469 1.78909 5.66448 1.76883V1.76883Z" stroke="#2B2B39" stroke-width="0.7" stroke-linecap="round" stroke-linejoin="bevel"/>
<path d="M6.52698 8.29323C7.54398 8.29323 8.36842 7.46879 8.36842 6.45179C8.36842 5.43479 7.54398 4.61035 6.52698 4.61035C5.50999 4.61035 4.68555 5.43479 4.68555 6.45179C4.68555 7.46879 5.50999 8.29323 6.52698 8.29323Z" stroke="#2B2B39" stroke-width="0.7" stroke-linecap="round" stroke-linejoin="bevel"/>
</svg>
