<svg width="14" height="14" viewBox="0 0 14 14" fill="none" xmlns="http://www.w3.org/2000/svg">
<g clip-path="url(#clip0_159_7)">
<path d="M2.91667 0H11.0833C11.8566 0.00092625 12.5979 0.308514 13.1447 0.855295C13.6915 1.40208 13.9991 2.1434 14 2.91667L14 11.0833C13.9991 11.8566 13.6915 12.5979 13.1447 13.1447C12.5979 13.6915 11.8566 13.9991 11.0833 14H2.91667C2.1434 13.9991 1.40208 13.6915 0.855295 13.1447C0.308514 12.5979 0.000926727 11.8566 4.76837e-07 11.0833V2.91667C0.000926727 2.1434 0.308514 1.40208 0.855295 0.855295C1.40208 0.308514 2.1434 0.00092625 2.91667 0V0ZM1.16667 11.0833C1.16667 11.5475 1.35104 11.9926 1.67923 12.3208C2.00742 12.649 2.45254 12.8333 2.91667 12.8333H11.0833C11.5475 12.8333 11.9926 12.649 12.3208 12.3208C12.649 11.9926 12.8333 11.5475 12.8333 11.0833V2.91667C12.8333 2.45254 12.649 2.00742 12.3208 1.67923C11.9926 1.35104 11.5475 1.16667 11.0833 1.16667H2.91667C2.45254 1.16667 2.00742 1.35104 1.67923 1.67923C1.35104 2.00742 1.16667 2.45254 1.16667 2.91667V11.0833Z" fill="#A4A4A4"/>
</g>
<defs>
<clipPath id="clip0_159_7">
<rect width="14" height="14" fill="white" transform="matrix(-1 0 0 1 14 0)"/>
</clipPath>
</defs>
</svg>
