<svg id="announcement_speaker" data-name="announcement speaker" xmlns="http://www.w3.org/2000/svg" width="21.266" height="20.252" viewBox="0 0 21.266 20.252">
  <path id="Path_230" data-name="Path 230" d="M17.747,17.517c-2.508,0-4.4-3.351-4.4-7.759S15.239,2,17.747,2s4.362,3.351,4.362,7.759S20.219,17.517,17.747,17.517Zm0-13.332c-.909,0-2.217,2.186-2.217,5.573s1.309,5.573,2.217,5.573,2.181-2.186,2.181-5.573S18.619,4.186,17.747,4.186Z" transform="translate(-0.844 -2)" fill="#9f03bc"/>
  <path id="Path_231" data-name="Path 231" d="M17.706,11.911c.6,0,1.09-.995,1.09-2.222s-.488-2.222-1.09-2.222-1.09.995-1.09,2.222S17.1,11.911,17.706,11.911Z" transform="translate(-0.803 -1.931)" fill="#9f03bc"/>
  <path id="Path_232" data-name="Path 232" d="M17.9,17.517a.46.46,0,0,1-.218-.036L5,14.712A5.068,5.068,0,0,1,5,4.8L17.685,2.036a1.1,1.1,0,0,1,.473,2.149L5.471,6.954a2.847,2.847,0,0,0-2.29,2.8A2.922,2.922,0,0,0,5.435,12.6l12.686,2.768a1.14,1.14,0,0,1,.836,1.311A1.054,1.054,0,0,1,17.9,17.517Z" transform="translate(-1 -2)" fill="#9f03bc"/>
  <path id="Path_233" data-name="Path 233" d="M11.346,22.118a2.423,2.423,0,0,1-2.072-1.166L5.166,14.323a1.091,1.091,0,0,1,1.163-1.639l3.708.838a1.192,1.192,0,0,1,.691.474l2.69,4.335a2.424,2.424,0,0,1,.073,2.477A2.558,2.558,0,0,1,11.346,22.118ZM8.4,15.415l2.69,4.371a.259.259,0,0,0,.218.109.209.209,0,0,0,.218-.146.217.217,0,0,0,0-.255L9.056,15.561Z" transform="translate(-0.949 -1.865)" fill="#9f03bc"/>
</svg>
